<svg xmlns="http://www.w3.org/2000/svg" viewBox="0 0 1024 1024" width="1024" height="1024">
  <defs>
    <linearGradient id="bgGrad" x1="0" y1="0" x2="1024" y2="1024" gradientUnits="userSpaceOnUse">
      <stop offset="0" stop-color="#72DDF4"/>
      <stop offset="0.55" stop-color="#7E57C2"/>
      <stop offset="1" stop-color="#5E35B1"/>
    </linearGradient>

    <radialGradient id="highlight" cx="0.3" cy="0.2" r="0.7">
      <stop offset="0" stop-color="rgba(255,255,255,0.18)"/>
      <stop offset="1" stop-color="rgba(255,255,255,0)"/>
    </radialGradient>

    <filter id="softGlow" x="-20%" y="-20%" width="140%" height="140%">
      <feGaussianBlur stdDeviation="14" result="blur"/>
      <feMerge>
        <feMergeNode in="blur"/>
        <feMergeNode in="SourceGraphic"/>
      </feMerge>
    </filter>

    <clipPath id="iconClip">
      <rect width="1024" height="1024" rx="225" ry="225"/>
    </clipPath>
  </defs>

  <g clip-path="url(#iconClip)">
    <rect width="1024" height="1024" fill="url(#bgGrad)"/>
    <rect width="1024" height="1024" fill="url(#highlight)"/>

    <g transform="translate(512, 512)" filter="url(#softGlow)">
      <path
        d="M0,200
           C-180,90 -310,-30 -240,-160
           C-180,-260 -80,-240 0,-130
           C80,-240 180,-260 240,-160
           C310,-30 180,90 0,200 Z"
        fill="rgba(255,255,255,0.97)"
      />
    </g>

    <g
      transform="translate(0, 540)"
      fill="none"
      stroke="#FFB26B"
      stroke-width="36"
      stroke-linecap="round"
      stroke-linejoin="round"
    >
      <polyline points="170,0 360,0 410,-90 470,150 550,-150 620,90 680,0 854,0"/>
    </g>
  </g>
</svg>
